Coordinates
version=1
nRows=49
nColumns=12
inDegrees=yes

Units are S.I. units (second, meters, Newtons, ...)
Angles are in degrees

endheader
time	SC_y	SC_z	SC_x	AC_y	AC_z	AC_x	GH_y	GH_z	GH_yy	EL_x	PS_y
       0.0              -41.98           25.8           77.2          47.86         -5.459         -8.274          67.43         -6.795          -61.3          133.0          133.2
  0.001769              -41.98           25.8           77.2          47.86         -5.459         -8.272           67.4         -6.792          -61.3          133.0          133.2
  0.003538              -41.98          25.79          77.19          47.86         -5.458          -8.27          67.38         -6.789         -61.29          133.0          133.2
  0.005307              -41.98          25.79          77.19          47.86         -5.458         -8.268          67.35         -6.786         -61.29          133.0          133.2
  0.007076              -41.98          25.79          77.19          47.86         -5.458         -8.265          67.33         -6.783         -61.28          132.9          133.2
  0.008844              -41.98          25.78          77.18          47.86         -5.457         -8.263           67.3         -6.779         -61.27          132.9          133.2
   0.01061              -41.98          25.78          77.18          47.87         -5.457          -8.26          67.27         -6.775         -61.26          132.9          133.2
   0.01238              -41.98          25.77          77.18          47.87         -5.457         -8.257          67.24         -6.771         -61.26          132.9          133.2
   0.01415              -41.98          25.77          77.17          47.87         -5.456         -8.254           67.2         -6.766         -61.25          132.8          133.2
   0.01592              -41.99          25.76          77.17          47.87         -5.456          -8.25          67.16         -6.762         -61.24          132.8          133.2
   0.01769              -41.99          25.75          77.16          47.87         -5.455         -8.247          67.12         -6.756         -61.23          132.8          133.2
   0.01946              -41.99          25.75          77.16          47.88         -5.455         -8.243          67.08         -6.751         -61.22          132.7          133.2
   0.02123              -41.99          25.74          77.15          47.88         -5.454         -8.239          67.03         -6.745         -61.21          132.7          133.2
     0.023              -41.99          25.73          77.14          47.88         -5.454         -8.234          66.98         -6.738         -61.19          132.7          133.3
   0.02476              -41.99          25.72          77.14          47.89         -5.453         -8.229          66.93         -6.731         -61.18          132.6          133.3
   0.02653              -41.99          25.71          77.13          47.89         -5.452         -8.224          66.87         -6.724         -61.16          132.6          133.3
    0.0283              -41.99           25.7          77.12          47.89         -5.452         -8.218           66.8         -6.716         -61.15          132.5          133.3
   0.03007              -41.99          25.69          77.11           47.9         -5.451         -8.212          66.73         -6.707         -61.13          132.5          133.3
   0.03184               -42.0          25.68           77.1           47.9          -5.45         -8.205          66.66         -6.697         -61.11          132.4          133.3
   0.03361               -42.0          25.67          77.09          47.91         -5.449         -8.197          66.57         -6.686         -61.09          132.3          133.3
   0.03538               -42.0          25.65          77.08          47.91         -5.448         -8.189          66.48         -6.674         -61.07          132.3          133.3
   0.03715               -42.0          25.64          77.07          47.92         -5.447          -8.18          66.38         -6.661         -61.04          132.2          133.3
   0.03892               -42.0          25.62          77.05          47.92         -5.446          -8.17          66.27         -6.647         -61.02          132.1          133.3
   0.04068              -42.01           25.6          77.04          47.93         -5.444         -8.159          66.14         -6.631         -60.99          132.0          133.3
   0.04245              -42.01          25.58          77.02          47.94         -5.443         -8.146           66.0         -6.614         -60.95          131.9          133.4
   0.04422              -42.01          25.55           77.0          47.95         -5.441         -8.132          65.85         -6.594         -60.91          131.8          133.4
   0.04599              -42.02          25.52          76.98          47.96         -5.439         -8.117          65.68         -6.572         -60.87          131.6          133.4
   0.04776              -42.02          25.49          76.95          47.97         -5.437         -8.099          65.48         -6.547         -60.82          131.5          133.4
   0.04953              -42.02          25.46          76.93          47.98         -5.434          -8.08          65.26         -6.519         -60.77          131.3          133.4
    0.0513              -42.03          25.42          76.89          47.99         -5.431         -8.057          65.01         -6.487         -60.71          131.1          133.5
   0.05307              -42.04          25.37          76.86          48.01         -5.428         -8.032          64.73         -6.451         -60.64          130.9          133.5
   0.05484              -42.04          25.32          76.82          48.03         -5.425         -8.003           64.4         -6.409         -60.56          130.6          133.5
    0.0566              -42.05          25.26          76.77          48.05          -5.42         -7.969          64.02         -6.361         -60.46          130.3          133.5
   0.05837              -42.06          25.19          76.71          48.07         -5.415         -7.929          63.58         -6.305         -60.35          130.0          133.6
   0.06014              -42.07          25.11          76.65           48.1          -5.41         -7.883          63.07          -6.24         -60.23          129.6          133.6
   0.06191              -42.08          25.01          76.57          48.14         -5.403         -7.829          62.47         -6.162         -60.08          129.1          133.7
   0.06368               -42.1           24.9          76.48          48.18         -5.395         -7.765          61.75         -6.071          -59.9          128.5          133.8
   0.06545              -42.12          24.76          76.37          48.22         -5.385         -7.687          60.88         -5.961         -59.69          127.8          133.9
   0.06722              -42.14           24.6          76.24          48.28         -5.373         -7.594          59.84         -5.828         -59.43          127.0          134.0
   0.06899              -42.16          24.39          76.08          48.35         -5.359          -7.48          58.57         -5.665         -59.12          126.0          134.1
   0.07076               -42.2          24.14          75.88          48.44         -5.341         -7.339           57.0         -5.465         -58.73          124.8          134.3
   0.07252              -42.24          23.83          75.63          48.55         -5.319         -7.163          55.04         -5.215         -58.25          123.2          134.5
   0.07429              -42.29          23.44          75.32          48.69         -5.291         -6.942          52.57           -4.9         -57.64          121.2          134.7
   0.07606              -42.35          22.94          74.92          48.87         -5.255          -6.66          49.43           -4.5         -56.86          118.7          135.0
   0.07783              -42.44           22.3          74.42          49.09          -5.21           -6.3          45.41         -3.987         -55.87          115.6          135.4
    0.0796              -42.54          21.48          73.76          49.38         -5.152         -5.838          40.26          -3.33          -54.6          111.5          135.9
   0.08137              -42.68          20.43          72.93          49.75         -5.077         -5.248          33.67          -2.49         -52.98          106.3          136.6
   0.08314              -42.85          19.11          71.88          50.21         -4.984         -4.505          25.39         -1.434         -50.93          99.69          137.4
   0.08491              -43.06          17.51          70.61          50.78          -4.87         -3.601           15.3         -0.147         -48.44          91.69          138.4
